# Blender 4.2.2 LTS
# www.blender.org
o Object_68
v 0.454224 1.012480 -0.094833
v 0.465744 1.012480 -0.106353
v 0.827595 1.012480 -0.106353
v 0.839115 1.012480 -0.094833
v 0.839115 1.012480 0.267019
v 0.827595 1.012480 0.278539
v 0.465744 1.012480 0.278539
v 0.454224 1.012480 0.267019
v 0.827595 1.334677 0.278539
v 0.465744 1.334677 0.278539
v 0.465744 1.012480 0.278539
v 0.827595 1.012480 0.278539
v 0.454224 1.334677 0.267019
v 0.465744 1.334677 0.278539
v 0.827595 1.334677 0.278539
v 0.839115 1.334677 0.267019
v 0.839115 1.334677 -0.094833
v 0.827595 1.334677 -0.106353
v 0.465744 1.334677 -0.106353
v 0.454224 1.334677 -0.094833
v 0.839115 1.334677 -0.094833
v 0.839115 1.334677 0.267019
v 0.839115 1.012480 0.267019
v 0.839115 1.012480 -0.094833
v 0.454224 1.334677 0.267019
v 0.454224 1.334677 -0.094833
v 0.454224 1.012480 -0.094833
v 0.454224 1.012480 0.267019
v 0.454224 1.012480 -0.094833
v 0.454224 1.334677 -0.094833
v 0.465744 1.334677 -0.106353
v 0.465744 1.012480 -0.106353
v 0.839115 1.334677 -0.094833
v 0.839115 1.012480 -0.094833
v 0.827595 1.012480 -0.106353
v 0.827595 1.334677 -0.106353
v 0.839115 1.012480 0.267019
v 0.839115 1.334677 0.267019
v 0.465744 1.012480 0.278539
v 0.465744 1.334677 0.278539
v 0.465744 1.334677 -0.106353
v 0.465744 1.012480 -0.106353
v 0.447971 1.303976 -0.100377
v 0.460199 1.303976 -0.112605
v 0.833140 1.303976 -0.112605
v 0.845368 1.303976 -0.100377
v 0.845368 1.303976 0.272564
v 0.833140 1.303976 0.284792
v 0.460199 1.303976 0.284792
v 0.447971 1.303976 0.272564
v 0.447971 1.346127 0.272564
v 0.447971 1.303976 0.272564
v 0.460199 1.303976 0.284792
v 0.460199 1.346127 0.284792
v 0.447971 1.303976 -0.100377
v 0.447971 1.346127 -0.100377
v 0.460199 1.346127 -0.112605
v 0.460199 1.303976 -0.112605
v 0.833140 1.346127 0.284792
v 0.833140 1.303976 0.284792
v 0.845368 1.303976 0.272564
v 0.845368 1.346127 0.272564
v 0.845368 1.346127 -0.100377
v 0.845368 1.303976 -0.100377
v 0.833140 1.303976 -0.112605
v 0.833140 1.346127 -0.112605
v 0.460199 1.346127 -0.112605
v 0.833140 1.346127 -0.112605
v 0.833140 1.303976 -0.112605
v 0.460199 1.303976 -0.112605
v 0.845368 1.346127 -0.100377
v 0.845368 1.346127 0.272564
v 0.845368 1.303976 0.272564
v 0.845368 1.303976 -0.100377
v 0.833140 1.346127 0.284792
v 0.460199 1.346127 0.284792
v 0.460199 1.303976 0.284792
v 0.833140 1.303976 0.284792
v 0.447971 1.346127 0.272564
v 0.447971 1.346127 -0.100377
v 0.447971 1.303976 -0.100377
v 0.447971 1.303976 0.272564
v 0.456323 1.355703 -0.096918
v 0.463659 1.355703 -0.104253
v 0.460199 1.346127 -0.112605
v 0.447971 1.346127 -0.100377
v 0.829680 1.355703 -0.104253
v 0.837016 1.355703 -0.096918
v 0.845368 1.346127 -0.100377
v 0.833140 1.346127 -0.112605
v 0.837016 1.355703 0.269104
v 0.829680 1.355703 0.276439
v 0.833140 1.346127 0.284792
v 0.845368 1.346127 0.272564
v 0.463659 1.355703 0.276439
v 0.456323 1.355703 0.269104
v 0.447971 1.346127 0.272564
v 0.460199 1.346127 0.284792
v 0.463659 1.355703 -0.104253
v 0.829680 1.355703 -0.104253
v 0.456323 1.355703 0.269104
v 0.456323 1.355703 -0.096918
vn 0.3827 -0.0000 0.9239
vn -0.3827 -0.0000 0.9239
vn 0.9239 -0.0000 -0.3827
vn 0.9239 -0.0000 0.3827
vn -0.9239 -0.0000 0.3827
vn -0.9239 -0.0000 -0.3827
vn -0.3827 -0.0000 -0.9239
vn 0.3827 -0.0000 -0.9239
vn -0.8683 0.3416 0.3596
vn -0.3597 0.3416 0.8683
vn -0.8683 0.3416 -0.3597
vn -0.3596 0.3416 -0.8683
vn 0.3596 0.3416 0.8683
vn 0.8683 0.3416 0.3597
vn 0.8683 0.3416 -0.3596
vn 0.3597 0.3416 -0.8683
vn 0.3596 0.3416 -0.8683
vn -0.8683 0.3416 -0.3596
vn -0.4365 0.8814 -0.1808
vn -0.1808 0.8814 -0.4365
vn -0.3597 0.3416 -0.8683
vn 0.1808 0.8814 -0.4364
vn 0.4365 0.8813 -0.1808
vn 0.4365 0.8813 0.1808
vn 0.1808 0.8814 0.4365
vn 0.8683 0.3416 0.3596
vn -0.1808 0.8814 0.4365
vn -0.4365 0.8814 0.1808
vn -0.8683 0.3416 0.3597
vn -0.3596 0.3416 0.8683
vn -0.1808 0.8813 -0.4366
vn 0.1808 0.8813 -0.4366
vn -0.4366 0.8813 0.1808
vn -0.4366 0.8813 -0.1808
vn -0.0000 -1.0000 -0.0000
vn -0.0000 1.0000 -0.0000
vt 1.003849 -0.000438
vt 0.002437 -0.003418
vt 0.002437 0.996582
vt 1.003849 0.999562
vt 1.000535 0.000090
vt 0.036333 0.000152
vt 0.036333 1.000152
vt 1.000535 1.000090
vt 0.972359 -0.003180
vt 0.032220 -0.003180
vt 0.032220 0.996820
vt 0.972359 0.996820
vt 0.032220 0.998728
vt 0.032220 -0.001272
vt 0.002289 -0.001272
vt 0.002289 0.998728
vt 0.999498 -0.001565
vt 0.999498 0.998435
vt 0.969568 0.998435
vt 0.969568 -0.001565
vt 1.033780 0.999562
vt 1.033780 -0.000438
vt 1.002289 0.996820
vt 1.002289 -0.003180
vt 0.001706 0.003205
vt 0.002397 1.003205
vt -0.020390 -0.006885
vt -0.020390 0.111267
vt 0.010380 0.111267
vt 0.010380 -0.006885
vt 1.155817 0.129450
vt 1.155817 0.011298
vt 1.186588 0.011298
vt 1.186588 0.129450
vt 1.030586 -0.006620
vt 1.028715 0.112402
vt 0.971932 0.112402
vt 0.973913 -0.006620
vt 0.035209 0.005079
vt 0.035209 0.123231
vt 0.004438 0.123231
vt 0.004438 0.005079
vt 1.186485 0.011264
vt 2.124944 0.011264
vt 2.124944 0.129416
vt 1.186485 0.129416
vt 0.034569 -0.007081
vt 0.973027 -0.007081
vt 0.973027 0.111071
vt 0.034569 0.111071
vt 0.005611 0.023088
vt 0.005058 0.960785
vt 0.123210 0.960933
vt 0.123763 0.023235
vt -0.025951 -0.008272
vt -0.964410 -0.008272
vt -0.964410 0.109879
vt -0.025951 0.109879
vt -0.956086 0.972068
vt -0.974544 0.953609
vt -0.995562 0.962315
vt -0.964791 0.993086
vt -0.974544 0.032562
vt -0.956086 0.014103
vt -0.964791 -0.006914
vt -0.995562 0.023856
vt -0.035039 0.014103
vt -0.016580 0.032562
vt 0.004438 0.023856
vt -0.026333 -0.006914
vt -0.016580 0.953609
vt -0.035039 0.972068
vt -0.026333 0.993086
vt 0.004438 0.962315
vt 1.195191 0.032282
vt 2.116238 0.032282
vt -0.034650 -0.029131
vt -0.955697 -0.029449
vt 1.004438 0.023016
vt 0.034368 -0.006914
vt 0.974507 -0.006914
vt 0.004438 0.023016
vt 1.004438 0.963155
vt 0.004438 0.963155
vt 0.974507 0.993086
vt 0.034368 0.993086
vt -0.995562 0.023016
vt -0.025493 -0.006914
vt -0.965632 -0.006914
vt -0.995562 0.963155
vt -0.965632 0.993086
vt -0.025493 0.993086
vt 1.004438 0.023856
vt 0.035209 -0.006914
vt 0.973667 -0.006914
vt 1.004438 0.962315
vt 0.973667 0.993086
vt 0.035209 0.993086
s 1
f 9/1/1 10/2/2 11/3/2
f 9/1/1 11/3/2 12/4/1
f 21/5/3 22/6/4 23/7/4
f 21/5/3 23/7/4 24/8/3
f 25/9/5 26/10/6 27/11/6
f 25/9/5 27/11/6 28/12/5
f 29/13/6 30/14/6 31/15/7
f 29/13/6 31/15/7 32/16/7
f 33/17/3 34/18/3 35/19/8
f 33/17/3 35/19/8 36/20/8
f 9/1/1 12/4/1 37/21/4
f 9/1/1 37/21/4 38/22/4
f 25/9/5 28/12/5 39/23/2
f 25/9/5 39/23/2 40/24/2
f 41/25/7 36/20/8 35/19/8
f 41/25/7 35/19/8 42/26/7
f 51/27/9 52/28/5 53/29/2
f 51/27/9 53/29/2 54/30/10
f 55/31/6 56/32/11 57/33/12
f 55/31/6 57/33/12 58/34/7
f 59/35/13 60/36/1 61/37/4
f 59/35/13 61/37/4 62/38/14
f 63/39/15 64/40/3 65/41/8
f 63/39/15 65/41/8 66/42/16
f 67/43/12 68/44/17 69/45/8
f 67/43/12 69/45/8 70/46/7
f 71/47/15 72/48/14 73/49/4
f 71/47/15 73/49/4 74/50/3
f 75/51/13 76/52/10 77/53/2
f 75/51/13 77/53/2 78/54/1
f 79/55/9 80/56/18 81/57/6
f 79/55/9 81/57/6 82/58/5
f 83/59/19 84/60/20 85/61/21
f 83/59/19 85/61/21 86/62/18
f 87/63/22 88/64/23 89/65/15
f 87/63/22 89/65/15 90/66/17
f 91/67/24 92/68/25 93/69/13
f 91/67/24 93/69/13 94/70/26
f 95/71/27 96/72/28 97/73/29
f 95/71/27 97/73/29 98/74/30
f 99/75/31 100/76/32 68/44/17
f 99/75/31 68/44/17 67/43/12
f 101/77/33 102/78/34 80/56/18
f 101/77/33 80/56/18 79/55/9
f 88/64/23 91/67/24 94/70/26
f 88/64/23 94/70/26 89/65/15
f 92/68/25 95/71/27 98/74/30
f 92/68/25 98/74/30 93/69/13
s 0
f 6/79/35 4/80/35 5/81/35
f 4/80/35 6/79/35 3/82/35
f 3/82/35 6/79/35 7/83/35
f 3/82/35 7/83/35 2/84/35
f 2/84/35 7/83/35 8/85/35
f 2/84/35 8/85/35 1/86/35
f 18/87/36 16/88/36 17/89/36
f 16/88/36 18/87/36 15/82/36
f 15/82/36 18/87/36 19/90/36
f 15/82/36 19/90/36 14/84/36
f 14/84/36 19/90/36 20/91/36
f 14/84/36 20/91/36 13/92/36
f 48/93/35 46/94/35 47/95/35
f 46/94/35 48/93/35 45/69/35
f 45/69/35 48/93/35 49/96/35
f 45/69/35 49/96/35 44/74/35
f 44/74/35 49/96/35 50/97/35
f 44/74/35 50/97/35 43/98/35
s 1
f 87/63/22 91/67/24 88/64/23
f 91/67/24 87/63/22 92/68/25
f 92/68/25 87/63/22 84/60/20
f 92/68/25 84/60/20 95/71/27
f 95/71/27 84/60/20 83/59/19
f 95/71/27 83/59/19 96/72/28
