# Blender 4.2.2 LTS
# www.blender.org
o Tree_Decorated.003
v 0.598956 1.044097 -0.007845
v 0.602855 1.044097 -0.006590
v 0.601444 1.006053 -0.025589
v 0.611182 1.006053 -0.022456
v 0.616298 1.002966 -0.061736
v 0.620196 1.002966 -0.060481
v 0.604786 0.972474 -0.035975
v 0.614524 0.972474 -0.032842
v 0.609674 0.936414 -0.041151
v 0.613572 0.936414 -0.039897
v 0.596037 0.951722 -0.008784
v 0.605774 0.951722 -0.005651
v 0.588239 0.936414 0.025461
v 0.592137 0.936414 0.026716
v 0.587287 0.972474 0.018406
v 0.597025 0.972474 0.021540
v 0.581615 1.002966 0.046046
v 0.585513 1.002966 0.047300
v 0.590629 1.006053 0.008020
v 0.600367 1.006053 0.011154
v 0.611883 0.981097 -0.003685
v 0.590908 0.983358 -0.010435
v 0.007292 1.504893 0.319077
v 0.007544 1.504893 0.323164
v 0.024723 1.466849 0.314930
v 0.025352 1.466849 0.325140
v 0.063797 1.463761 0.315596
v 0.064049 1.463761 0.319683
v 0.035613 1.433270 0.314259
v 0.036242 1.433270 0.324469
v 0.042214 1.397210 0.316925
v 0.042466 1.397210 0.321013
v 0.007103 1.412517 0.316015
v 0.007732 1.412517 0.326225
v -0.027630 1.397210 0.321228
v -0.027378 1.397210 0.325315
v -0.021406 1.433270 0.317772
v -0.020777 1.433270 0.327982
v -0.049213 1.463761 0.322558
v -0.048961 1.463761 0.326645
v -0.010517 1.466849 0.317101
v -0.009888 1.466849 0.327311
v 0.008127 1.441892 0.332630
v 0.006772 1.444154 0.310637
v 0.007510 1.504893 -0.333993
v 0.006676 1.504893 -0.338002
v -0.009148 1.466849 -0.327394
v -0.011232 1.466849 -0.337409
v -0.047915 1.463762 -0.322462
v -0.048749 1.463762 -0.326471
v -0.019830 1.433270 -0.325172
v -0.021914 1.433270 -0.335187
v -0.026745 1.397210 -0.326866
v -0.027579 1.397210 -0.330876
v 0.008135 1.412517 -0.330990
v 0.006051 1.412517 -0.341005
v 0.041765 1.397210 -0.341120
v 0.040931 1.397210 -0.345129
v 0.036100 1.433270 -0.336809
v 0.034016 1.433270 -0.346824
v 0.062935 1.463762 -0.345525
v 0.062101 1.463762 -0.349534
v 0.025418 1.466849 -0.334586
v 0.023334 1.466849 -0.344601
v 0.004744 1.441892 -0.347287
v 0.009232 1.444154 -0.325715
v -0.597572 1.037050 -0.007955
v -0.593126 1.037050 -0.006525
v -0.594735 0.993669 -0.028189
v -0.583631 0.993669 -0.024616
v -0.577797 0.990149 -0.069406
v -0.573352 0.990149 -0.067976
v -0.590924 0.955380 -0.040032
v -0.579820 0.955380 -0.036458
v -0.585350 0.914261 -0.045934
v -0.580905 0.914261 -0.044503
v -0.600901 0.931716 -0.009026
v -0.589797 0.931716 -0.005453
v -0.609793 0.914261 0.030024
v -0.605348 0.914261 0.031454
v -0.610878 0.955380 0.021979
v -0.599774 0.955380 0.025552
v -0.617346 0.990149 0.053496
v -0.612901 0.990149 0.054926
v -0.607067 0.993669 0.010136
v -0.595963 0.993669 0.013709
v -0.582832 0.965212 -0.003212
v -0.606750 0.967791 -0.010908
vn 0.2779 0.4209 -0.8635
vn 0.0242 0.9969 -0.0752
vn 0.2254 -0.6770 -0.7006
vn 0.3016 0.1754 -0.9372
vn -0.1228 -0.9162 0.3816
vn 0.1228 -0.9162 -0.3815
vn 0.1228 -0.9162 -0.3816
vn -0.3016 0.1754 0.9372
vn -0.2254 -0.6770 0.7006
vn 0.9592 0.1866 0.2123
vn -0.0242 0.9969 0.0752
vn -0.2779 0.4209 0.8635
vn -0.9736 0.1368 -0.1829
vn -0.9344 -0.1679 -0.3143
vn -0.9881 -0.0538 -0.1443
vn -0.9881 -0.0537 -0.1443
vn -0.9880 -0.0544 -0.1445
vn 0.8859 0.1472 0.4399
vn 0.9935 -0.0465 0.1038
vn 0.8707 -0.0811 0.4851
vn 0.9323 -0.2134 0.2919
vn 0.9902 -0.0811 0.1137
vn 0.9762 0.1472 0.1593
vn 0.8676 -0.0465 0.4951
vn 0.9030 0.1866 0.3870
vn 0.9276 -0.2134 0.3066
vn -0.9076 0.1630 -0.3869
vn -0.9881 -0.0532 -0.1441
vn -0.8868 -0.0538 -0.4590
vn -0.8868 -0.0537 -0.4590
vn -0.8867 -0.0532 -0.4592
vn -0.9629 0.1630 -0.2150
vn -0.8869 -0.0544 -0.4588
vn -0.9423 -0.1679 -0.2896
vn -0.8975 0.1368 -0.4192
vn 0.9054 0.4209 -0.0558
vn 0.0788 0.9969 -0.0049
vn 0.7346 -0.6770 -0.0453
vn 0.9826 0.1754 -0.0605
vn -0.4001 -0.9162 0.0246
vn 0.4001 -0.9162 -0.0246
vn -0.9826 0.1754 0.0605
vn -0.7346 -0.6770 0.0453
vn 0.1518 0.1866 0.9706
vn -0.0788 0.9969 0.0049
vn -0.9054 0.4209 0.0558
vn -0.1843 0.1368 -0.9733
vn -0.0477 -0.1679 -0.9847
vn -0.2255 -0.0538 -0.9728
vn -0.2255 -0.0537 -0.9728
vn -0.2253 -0.0544 -0.9728
vn -0.0869 0.1472 0.9853
vn 0.2653 -0.0465 0.9630
vn -0.1346 -0.0811 0.9876
vn 0.0678 -0.2134 0.9746
vn 0.2548 -0.0811 0.9636
vn 0.2072 0.1472 0.9672
vn -0.1451 -0.0465 0.9883
vn -0.0315 0.1866 0.9819
vn 0.0524 -0.2134 0.9756
vn 0.0297 0.1630 -0.9862
vn -0.2257 -0.0532 -0.9727
vn 0.1044 -0.0538 -0.9931
vn 0.1044 -0.0537 -0.9931
vn 0.1046 -0.0532 -0.9931
vn -0.1505 0.1630 -0.9751
vn 0.1042 -0.0544 -0.9931
vn -0.0735 -0.1679 -0.9831
vn 0.0634 0.1368 -0.9886
vn -0.8881 0.4209 0.1848
vn -0.0773 0.9969 0.0161
vn -0.7205 -0.6770 0.1499
vn -0.9639 0.1754 0.2005
vn 0.3924 -0.9162 -0.0816
vn -0.3924 -0.9162 0.0816
vn 0.9639 0.1754 -0.2005
vn 0.7205 -0.6770 -0.1499
vn -0.2891 0.1866 -0.9389
vn 0.0773 0.9969 -0.0161
vn 0.8881 0.4209 -0.1848
vn 0.3217 0.1368 0.9369
vn 0.1881 -0.1679 0.9677
vn 0.3624 -0.0538 0.9305
vn 0.3624 -0.0537 0.9305
vn 0.3622 -0.0544 0.9305
vn -0.0550 0.1472 -0.9876
vn -0.4004 -0.0465 -0.9152
vn -0.0081 -0.0811 -0.9967
vn -0.2066 -0.2134 -0.9549
vn -0.3901 -0.0811 -0.9172
vn -0.3435 0.1472 -0.9275
vn 0.0021 -0.0465 -0.9989
vn -0.1094 0.1866 -0.9763
vn -0.1914 -0.2134 -0.9580
vn 0.1117 0.1630 0.9803
vn 0.3626 -0.0532 0.9304
vn 0.0388 -0.0538 0.9978
vn 0.0388 -0.0537 0.9978
vn 0.0386 -0.0532 0.9978
vn 0.2885 0.1630 0.9435
vn 0.0390 -0.0544 0.9978
vn 0.2135 -0.1679 0.9624
vn 0.0787 0.1368 0.9875
vn -0.1228 -0.9162 0.3815
vn 0.9592 0.1866 0.2122
vn -0.0774 0.9969 0.0161
vn 0.3924 -0.9161 -0.0816
vt 0.278084 0.898198
s 1
f 2/1/1 3/1/1 1/1/1
f 3/1/2 6/1/2 5/1/2
f 5/1/3 8/1/3 7/1/3
f 7/1/4 10/1/4 9/1/4
f 10/1/5 11/1/5 9/1/5
f 12/1/6 13/1/7 11/1/6
f 14/1/8 15/1/8 13/1/8
f 15/1/9 18/1/9 17/1/9
f 4/1/10 21/1/10 6/1/10
f 17/1/11 20/1/11 19/1/11
f 20/1/12 1/1/12 19/1/12
f 1/1/13 22/1/13 19/1/13
f 11/1/14 22/1/14 9/1/14
f 15/1/15 22/1/16 13/1/17
f 21/1/18 2/1/18 20/1/18
f 10/1/19 8/1/19 21/1/19
f 16/1/20 21/1/20 18/1/20
f 21/1/21 14/1/21 12/1/21
f 6/1/22 21/1/22 8/1/22
f 4/1/23 2/1/23 21/1/23
f 16/1/24 14/1/24 21/1/24
f 18/1/25 21/1/25 20/1/25
f 21/1/26 12/1/26 10/1/26
f 5/1/27 22/1/27 3/1/27
f 17/1/28 22/1/16 15/1/15
f 7/1/29 22/1/30 5/1/31
f 19/1/32 22/1/32 17/1/32
f 9/1/33 22/1/30 7/1/29
f 13/1/34 22/1/34 11/1/34
f 3/1/35 22/1/35 1/1/35
f 24/1/36 25/1/36 23/1/36
f 26/1/37 27/1/37 25/1/37
f 27/1/38 30/1/38 29/1/38
f 30/1/39 31/1/39 29/1/39
f 31/1/40 34/1/40 33/1/40
f 34/1/41 35/1/41 33/1/41
f 36/1/42 37/1/42 35/1/42
f 38/1/43 39/1/43 37/1/43
f 26/1/44 43/1/44 28/1/44
f 39/1/45 42/1/45 41/1/45
f 41/1/46 24/1/46 23/1/46
f 23/1/47 44/1/47 41/1/47
f 33/1/48 44/1/48 31/1/48
f 37/1/49 44/1/50 35/1/51
f 43/1/52 24/1/52 42/1/52
f 32/1/53 30/1/53 43/1/53
f 38/1/54 43/1/54 40/1/54
f 43/1/55 36/1/55 34/1/55
f 28/1/56 43/1/56 30/1/56
f 26/1/57 24/1/57 43/1/57
f 38/1/58 36/1/58 43/1/58
f 40/1/59 43/1/59 42/1/59
f 43/1/60 34/1/60 32/1/60
f 27/1/61 44/1/61 25/1/61
f 39/1/62 44/1/50 37/1/49
f 29/1/63 44/1/64 27/1/65
f 41/1/66 44/1/66 39/1/66
f 31/1/67 44/1/64 29/1/63
f 35/1/68 44/1/68 33/1/68
f 25/1/69 44/1/69 23/1/69
f 46/1/70 47/1/70 45/1/70
f 48/1/71 49/1/71 47/1/71
f 49/1/72 52/1/72 51/1/72
f 52/1/73 53/1/73 51/1/73
f 53/1/74 56/1/74 55/1/74
f 56/1/75 57/1/75 55/1/75
f 58/1/76 59/1/76 57/1/76
f 60/1/77 61/1/77 59/1/77
f 48/1/78 65/1/78 50/1/78
f 61/1/79 64/1/79 63/1/79
f 63/1/80 46/1/80 45/1/80
f 45/1/81 66/1/81 63/1/81
f 55/1/82 66/1/82 53/1/82
f 59/1/83 66/1/84 57/1/85
f 65/1/86 46/1/86 64/1/86
f 54/1/87 52/1/87 65/1/87
f 60/1/88 65/1/88 62/1/88
f 65/1/89 58/1/89 56/1/89
f 50/1/90 65/1/90 52/1/90
f 48/1/91 46/1/91 65/1/91
f 60/1/92 58/1/92 65/1/92
f 62/1/93 65/1/93 64/1/93
f 65/1/94 56/1/94 54/1/94
f 49/1/95 66/1/95 47/1/95
f 61/1/96 66/1/84 59/1/83
f 51/1/97 66/1/98 49/1/99
f 63/1/100 66/1/100 61/1/100
f 53/1/101 66/1/98 51/1/97
f 57/1/102 66/1/102 55/1/102
f 47/1/103 66/1/103 45/1/103
f 68/1/1 69/1/1 67/1/1
f 69/1/2 72/1/2 71/1/2
f 72/1/3 73/1/3 71/1/3
f 74/1/4 75/1/4 73/1/4
f 76/1/5 77/1/104 75/1/5
f 77/1/7 80/1/6 79/1/6
f 79/1/8 82/1/8 81/1/8
f 82/1/9 83/1/9 81/1/9
f 70/1/105 87/1/105 72/1/105
f 84/1/11 85/1/11 83/1/11
f 85/1/12 68/1/12 67/1/12
f 67/1/13 88/1/13 85/1/13
f 77/1/14 88/1/14 75/1/14
f 81/1/15 88/1/16 79/1/17
f 87/1/18 68/1/18 86/1/18
f 76/1/19 74/1/19 87/1/19
f 82/1/20 87/1/20 84/1/20
f 87/1/21 80/1/21 78/1/21
f 72/1/22 87/1/22 74/1/22
f 70/1/23 68/1/23 87/1/23
f 82/1/24 80/1/24 87/1/24
f 84/1/25 87/1/25 86/1/25
f 87/1/26 78/1/26 76/1/26
f 71/1/27 88/1/27 69/1/27
f 83/1/28 88/1/16 81/1/15
f 73/1/29 88/1/30 71/1/31
f 85/1/32 88/1/32 83/1/32
f 75/1/33 88/1/30 73/1/29
f 79/1/34 88/1/34 77/1/34
f 69/1/35 88/1/35 67/1/35
f 2/1/1 4/1/1 3/1/1
f 3/1/2 4/1/2 6/1/2
f 5/1/3 6/1/3 8/1/3
f 7/1/4 8/1/4 10/1/4
f 10/1/5 12/1/5 11/1/5
f 12/1/6 14/1/7 13/1/7
f 14/1/8 16/1/8 15/1/8
f 15/1/9 16/1/9 18/1/9
f 17/1/11 18/1/11 20/1/11
f 20/1/12 2/1/12 1/1/12
f 24/1/36 26/1/36 25/1/36
f 26/1/37 28/1/37 27/1/37
f 27/1/38 28/1/38 30/1/38
f 30/1/39 32/1/39 31/1/39
f 31/1/40 32/1/40 34/1/40
f 34/1/41 36/1/41 35/1/41
f 36/1/42 38/1/42 37/1/42
f 38/1/43 40/1/43 39/1/43
f 39/1/45 40/1/45 42/1/45
f 41/1/46 42/1/46 24/1/46
f 46/1/70 48/1/70 47/1/70
f 48/1/71 50/1/106 49/1/71
f 49/1/72 50/1/72 52/1/72
f 52/1/73 54/1/73 53/1/73
f 53/1/74 54/1/107 56/1/74
f 56/1/75 58/1/75 57/1/75
f 58/1/76 60/1/76 59/1/76
f 60/1/77 62/1/77 61/1/77
f 61/1/79 62/1/79 64/1/79
f 63/1/80 64/1/80 46/1/80
f 68/1/1 70/1/1 69/1/1
f 69/1/2 70/1/2 72/1/2
f 72/1/3 74/1/3 73/1/3
f 74/1/4 76/1/4 75/1/4
f 76/1/5 78/1/104 77/1/104
f 77/1/7 78/1/7 80/1/6
f 79/1/8 80/1/8 82/1/8
f 82/1/9 84/1/9 83/1/9
f 84/1/11 86/1/11 85/1/11
f 85/1/12 86/1/12 68/1/12
