# Blender 4.2.2 LTS
# www.blender.org
o Tree_Decorated.006
v 0.002195 0.226064 -0.103866
v 0.086660 0.226064 -0.055100
v 0.086660 0.226064 0.042433
v 0.002195 0.226064 0.091199
v -0.082271 0.226064 0.042433
v -0.082271 0.226064 -0.055100
v 0.002195 -0.023370 -0.184383
v 0.156390 -0.023370 -0.095358
v 0.116502 0.223585 -0.072329
v 0.156390 -0.023370 0.082691
v 0.116502 0.223585 0.059662
v 0.002195 -0.023370 0.171716
v 0.002195 0.223585 0.125658
v -0.152001 -0.023370 0.082691
v -0.112113 0.223585 0.059662
v -0.152001 -0.023370 -0.095358
v -0.112113 0.223585 -0.072329
v 0.002195 0.223585 -0.138325
v 0.147491 0.065409 -0.090221
v 0.147491 0.065409 0.077554
v 0.002195 0.065409 0.161441
v -0.143102 0.065409 0.077554
v -0.143102 0.065409 -0.090221
v 0.002195 0.065409 -0.174108
v 0.352222 -0.024405 -0.062234
v 0.346634 0.031342 -0.059008
v 0.346634 0.031342 0.046341
v 0.352222 -0.024405 0.049567
v -0.124407 -0.024405 0.324749
v -0.124407 0.031342 0.318297
v -0.215642 0.031342 0.265622
v -0.221230 -0.024405 0.268848
v -0.221230 -0.024405 -0.281515
v -0.215642 0.031342 -0.278289
v -0.124407 0.031341 -0.330964
v -0.124407 -0.024405 -0.337416
vn 0.0828 0.9966 -0.0000
vn -0.0414 0.9966 -0.0717
vn 0.0414 0.9966 0.0717
vn -0.0414 0.9966 0.0717
vn -0.4907 0.1923 -0.8499
vn -0.9813 0.1923 -0.0000
vn -0.4907 0.1923 0.8499
vn 0.4907 0.1923 0.8499
vn 0.9813 0.1923 -0.0000
vn 0.4907 0.1923 -0.8499
vn -0.0828 0.9966 -0.0000
vn 0.0414 0.9966 -0.0717
vn -0.0048 -1.0000 -0.0000
vn 0.0024 -1.0000 -0.0042
vn 0.0024 -1.0000 0.0042
vn 0.4975 0.0997 -0.8617
vn 0.4975 0.0997 0.8617
vn -0.9950 0.0997 -0.0000
vn 0.1667 0.0736 -0.9833
vn 0.1686 0.9857 -0.0000
vn 0.1667 0.0736 0.9833
vn -0.0053 -1.0000 -0.0000
vn -0.4975 0.0997 0.8617
vn 0.7682 0.0736 0.6360
vn -0.0843 0.9857 0.1460
vn -0.9349 0.0736 -0.3473
vn 0.0026 -1.0000 -0.0046
vn -0.4975 0.0997 -0.8617
vn -0.9349 0.0736 0.3473
vn -0.0843 0.9857 -0.1460
vn 0.7682 0.0736 -0.6360
vn 0.0026 -1.0000 0.0046
vt 0.278084 0.898198
s 1
f 3/1/1 9/1/1 2/1/1
f 1/1/2 17/1/2 6/1/2
f 4/1/3 11/1/3 3/1/3
f 5/1/4 13/1/4 4/1/4
f 17/1/5 24/1/5 23/1/5
f 15/1/6 23/1/6 22/1/6
f 21/1/7 15/1/7 22/1/7
f 11/1/8 21/1/8 20/1/8
f 9/1/9 20/1/9 19/1/9
f 24/1/10 9/1/10 19/1/10
f 6/1/11 15/1/11 5/1/11
f 2/1/12 18/1/12 1/1/12
f 8/1/13 12/1/14 16/1/15
f 24/1/16 8/1/16 7/1/16
f 20/1/17 12/1/17 10/1/17
f 22/1/18 16/1/18 14/1/18
f 26/1/19 8/1/19 19/1/19
f 20/1/20 26/1/20 19/1/20
f 10/1/21 27/1/21 20/1/21
f 25/1/22 10/1/13 8/1/13
f 29/1/23 31/1/23 32/1/23
f 30/1/24 12/1/24 21/1/24
f 31/1/25 21/1/25 22/1/25
f 14/1/26 31/1/26 22/1/26
f 29/1/27 14/1/14 12/1/14
f 34/1/28 36/1/28 33/1/28
f 34/1/29 16/1/29 23/1/29
f 24/1/30 34/1/30 23/1/30
f 7/1/31 35/1/31 24/1/31
f 16/1/15 36/1/32 7/1/15
f 3/1/1 11/1/1 9/1/1
f 1/1/2 18/1/2 17/1/2
f 4/1/3 13/1/3 11/1/3
f 5/1/4 15/1/4 13/1/4
f 17/1/5 18/1/5 24/1/5
f 15/1/6 17/1/6 23/1/6
f 21/1/7 13/1/7 15/1/7
f 11/1/8 13/1/8 21/1/8
f 9/1/9 11/1/9 20/1/9
f 24/1/10 18/1/10 9/1/10
f 6/1/11 17/1/11 15/1/11
f 2/1/12 9/1/12 18/1/12
f 16/1/15 7/1/15 8/1/13
f 8/1/13 10/1/13 12/1/14
f 12/1/14 14/1/14 16/1/15
f 24/1/16 19/1/16 8/1/16
f 20/1/17 21/1/17 12/1/17
f 22/1/18 23/1/18 16/1/18
f 26/1/19 25/1/19 8/1/19
f 20/1/20 27/1/20 26/1/20
f 10/1/21 28/1/21 27/1/21
f 25/1/22 28/1/22 10/1/13
f 29/1/23 30/1/23 31/1/23
f 30/1/24 29/1/24 12/1/24
f 31/1/25 30/1/25 21/1/25
f 14/1/26 32/1/26 31/1/26
f 29/1/27 32/1/27 14/1/14
f 34/1/28 35/1/28 36/1/28
f 34/1/29 33/1/29 16/1/29
f 24/1/30 35/1/30 34/1/30
f 7/1/31 36/1/31 35/1/31
f 16/1/15 33/1/32 36/1/32
