# Blender 4.2.2 LTS
# www.blender.org
o Tree_Decorated.002
v 0.002195 0.418357 -0.117335
v 0.098325 0.418357 -0.061834
v 0.098325 0.418357 0.049167
v 0.002195 0.418357 0.104668
v -0.093935 0.418357 0.049167
v -0.093935 0.418357 -0.061834
v 0.002195 0.226064 -0.103866
v 0.086660 0.226064 -0.055100
v 0.086660 0.226064 0.042433
v 0.002195 0.226064 0.091199
v -0.082271 0.226064 0.042433
v -0.082271 0.226064 -0.055100
vn 0.4991 -0.0605 -0.8644
vn 0.9982 -0.0605 -0.0000
vn 0.4991 -0.0605 0.8644
vn -0.4991 -0.0605 0.8644
vn -0.9982 -0.0605 -0.0000
vn -0.4991 -0.0605 -0.8644
vt 0.106049 0.716549
s 1
f 1/1/1 8/1/1 7/1/1
f 2/1/2 9/1/2 8/1/2
f 3/1/3 10/1/3 9/1/3
f 10/1/4 5/1/4 11/1/4
f 5/1/5 12/1/5 11/1/5
f 6/1/6 7/1/6 12/1/6
f 1/1/1 2/1/1 8/1/1
f 2/1/2 3/1/2 9/1/2
f 3/1/3 4/1/3 10/1/3
f 10/1/4 4/1/4 5/1/4
f 5/1/5 6/1/5 12/1/5
f 6/1/6 1/1/6 7/1/6
